<svg width="500" height="300" xmlns="http://www.w3.org/2000/svg">
  <defs>
    <linearGradient id="workspaceBg" x1="0%" y1="0%" x2="100%" y2="100%">
      <stop offset="0%" style="stop-color:#F8F9FA;stop-opacity:1" />
      <stop offset="100%" style="stop-color:#E9ECEF;stop-opacity:1" />
    </linearGradient>
    <pattern id="woodGrain" patternUnits="userSpaceOnUse" width="40" height="8">
      <rect width="40" height="8" fill="#8D5524"/>
      <path d="M0,2 Q20,1 40,2" stroke="#A0522D" stroke-width="0.5" fill="none"/>
      <path d="M0,6 Q20,5 40,6" stroke="#A0522D" stroke-width="0.5" fill="none"/>
    </pattern>
  </defs>
  
  <!-- 背景 -->
  <rect width="100%" height="100%" fill="url(#workspaceBg)"/>
  
  <!-- 桌面 -->
  <rect x="0" y="200" width="500" height="100" fill="url(#woodGrain)"/>
  <rect x="0" y="195" width="500" height="5" fill="#6F4E37"/>
  
  <!-- 电脑显示器 -->
  <rect x="150" y="120" width="200" height="120" rx="5" fill="#2C3E50"/>
  <rect x="160" y="130" width="180" height="100" fill="#34495E"/>
  <rect x="165" y="135" width="170" height="90" fill="#ECF0F1"/>
  
  <!-- 显示器内容（照片预览） -->
  <rect x="170" y="140" width="50" height="35" fill="#E74C3C"/>
  <rect x="225" y="140" width="50" height="35" fill="#3498DB"/>
  <rect x="280" y="140" width="50" height="35" fill="#2ECC71"/>
  <rect x="170" y="180" width="50" height="35" fill="#F39C12"/>
  <rect x="225" y="180" width="50" height="35" fill="#9B59B6"/>
  <rect x="280" y="180" width="50" height="35" fill="#1ABC9C"/>
  
  <!-- 显示器支架 -->
  <rect x="235" y="240" width="30" height="15" fill="#7F8C8D"/>
  <rect x="220" y="250" width="60" height="8" rx="4" fill="#95A5A6"/>
  
  <!-- 键盘 -->
  <rect x="180" y="260" width="140" height="30" rx="3" fill="#BDC3C7"/>
  <rect x="185" y="265" width="130" height="20" fill="#ECF0F1"/>
  <!-- 键盘按键 -->
  <rect x="190" y="268" width="8" height="6" rx="1" fill="#95A5A6"/>
  <rect x="202" y="268" width="8" height="6" rx="1" fill="#95A5A6"/>
  <rect x="214" y="268" width="8" height="6" rx="1" fill="#95A5A6"/>
  <rect x="226" y="268" width="8" height="6" rx="1" fill="#95A5A6"/>
  <rect x="238" y="268" width="8" height="6" rx="1" fill="#95A5A6"/>
  <rect x="250" y="268" width="8" height="6" rx="1" fill="#95A5A6"/>
  <rect x="262" y="268" width="8" height="6" rx="1" fill="#95A5A6"/>
  <rect x="274" y="268" width="8" height="6" rx="1" fill="#95A5A6"/>
  <rect x="286" y="268" width="8" height="6" rx="1" fill="#95A5A6"/>
  <rect x="298" y="268" width="8" height="6" rx="1" fill="#95A5A6"/>
  
  <rect x="190" y="276" width="8" height="6" rx="1" fill="#95A5A6"/>
  <rect x="202" y="276" width="8" height="6" rx="1" fill="#95A5A6"/>
  <rect x="214" y="276" width="8" height="6" rx="1" fill="#95A5A6"/>
  <rect x="226" y="276" width="20" height="6" rx="1" fill="#95A5A6"/>
  <rect x="250" y="276" width="8" height="6" rx="1" fill="#95A5A6"/>
  <rect x="262" y="276" width="8" height="6" rx="1" fill="#95A5A6"/>
  <rect x="274" y="276" width="8" height="6" rx="1" fill="#95A5A6"/>
  <rect x="286" y="276" width="8" height="6" rx="1" fill="#95A5A6"/>
  <rect x="298" y="276" width="8" height="6" rx="1" fill="#95A5A6"/>
  
  <!-- 鼠标 -->
  <ellipse cx="340" cy="275" rx="12" ry="18" fill="#34495E"/>
  <ellipse cx="340" cy="270" rx="10" ry="15" fill="#7F8C8D"/>
  
  <!-- 相机 -->
  <rect x="50" y="170" width="80" height="50" rx="5" fill="#2C3E50"/>
  <rect x="55" y="175" width="70" height="40" rx="3" fill="#34495E"/>
  <circle cx="90" cy="195" r="18" fill="#E74C3C"/>
  <circle cx="90" cy="195" r="12" fill="#2C3E50"/>
  <rect x="120" y="185" width="15" height="8" rx="2" fill="#F39C12"/>
  <rect x="60" y="160" width="20" height="8" rx="2" fill="#95A5A6"/>
  
  <!-- 镜头 -->
  <circle cx="90" cy="195" r="25" fill="#7F8C8D"/>
  <circle cx="90" cy="195" r="20" fill="#2C3E50"/>
  <circle cx="90" cy="195" r="15" fill="#34495E"/>
  <text x="90" y="200" font-family="Arial, sans-serif" font-size="8" fill="white" text-anchor="middle">50mm</text>
  
  <!-- 咖啡杯 -->
  <ellipse cx="400" cy="240" rx="20" ry="15" fill="#8B4513"/>
  <ellipse cx="400" cy="235" rx="18" ry="13" fill="#D2691E"/>
  <ellipse cx="400" cy="230" rx="16" ry="11" fill="#F4A460"/>
  <path d="M420,235 Q430,235 430,245 Q430,255 420,255" stroke="#8B4513" stroke-width="3" fill="none"/>
  
  <!-- 书籍 -->
  <rect x="380" y="200" width="60" height="8" fill="#E74C3C"/>
  <rect x="385" y="192" width="60" height="8" fill="#3498DB"/>
  <rect x="390" y="184" width="60" height="8" fill="#2ECC71"/>
  
  <!-- 植物 -->
  <ellipse cx="450" cy="180" rx="8" ry="15" fill="#27AE60"/>
  <ellipse cx="445" cy="175" rx="6" ry="12" fill="#2ECC71"/>
  <ellipse cx="455" cy="175" rx="6" ry="12" fill="#2ECC71"/>
  <rect x="448" y="190" width="4" height="20" fill="#8B4513"/>
  <ellipse cx="450" cy="210" rx="12" ry="8" fill="#D35400"/>
  
  <!-- 装饰光线 -->
  <path d="M0,0 L100,50" stroke="rgba(255,255,255,0.3)" stroke-width="2"/>
  <path d="M0,20 L80,70" stroke="rgba(255,255,255,0.2)" stroke-width="1"/>
  <path d="M0,40 L60,90" stroke="rgba(255,255,255,0.2)" stroke-width="1"/>
  
  <!-- 标题 -->
  <text x="250" y="30" font-family="Arial, sans-serif" font-size="18" font-weight="bold" fill="#2C3E50" text-anchor="middle">Mon Espace de Travail</text>
</svg>
